<?xml version="1.0" encoding="UTF-8" standalone="no"?>
<!-- Created with Inkscape (http://www.inkscape.org/) -->

<svg
   width="297mm"
   height="210mm"
   viewBox="0 0 297 210"
   version="1.1"
   id="svg1"
   xml:space="preserve"
   inkscape:version="1.3 (0e150ed, 2023-07-21)"
   sodipodi:docname="if-then-else.svg"
   xmlns:inkscape="http://www.inkscape.org/namespaces/inkscape"
   xmlns:sodipodi="http://sodipodi.sourceforge.net/DTD/sodipodi-0.dtd"
   xmlns="http://www.w3.org/2000/svg"
   xmlns:svg="http://www.w3.org/2000/svg"><sodipodi:namedview
     id="namedview1"
     pagecolor="#ffffff"
     bordercolor="#666666"
     borderopacity="1.0"
     inkscape:showpageshadow="2"
     inkscape:pageopacity="0.0"
     inkscape:pagecheckerboard="0"
     inkscape:deskcolor="#d1d1d1"
     inkscape:document-units="mm"
     inkscape:zoom="0.68370934"
     inkscape:cx="528.73345"
     inkscape:cy="413.18728"
     inkscape:window-width="1696"
     inkscape:window-height="940"
     inkscape:window-x="8"
     inkscape:window-y="39"
     inkscape:window-maximized="0"
     inkscape:current-layer="layer1" /><defs
     id="defs1" /><g
     inkscape:label="Layer 1"
     inkscape:groupmode="layer"
     id="layer1"><g
       id="g4"><path
         d="m 51.561811,48.524334 h -8.836207 v -1.666382 h 3.398541 v -10.94111 h -3.398541 v -1.490973 q 0.690671,0 1.480009,-0.109631 0.789339,-0.120593 1.194971,-0.339854 0.5043,-0.274076 0.789339,-0.690671 0.296002,-0.427558 0.339854,-1.140156 h 1.699271 v 14.712395 h 3.332763 z m 15.183805,-8.167462 q 0,4.396177 -1.381342,6.457228 -1.37038,2.050088 -4.264621,2.050088 -2.938094,0 -4.297511,-2.082977 -1.348453,-2.082977 -1.348453,-6.402413 0,-4.352326 1.370379,-6.42434 1.37038,-2.082977 4.275585,-2.082977 2.938093,0 4.286547,2.115866 1.359416,2.104903 1.359416,6.369525 z m -2.883278,4.977218 q 0.383706,-0.888006 0.515263,-2.082977 0.142519,-1.205934 0.142519,-2.894241 0,-1.666382 -0.142519,-2.894242 -0.131557,-1.22786 -0.526226,-2.082977 -0.383707,-0.844154 -1.052452,-1.271712 -0.657782,-0.427559 -1.69927,-0.427559 -1.030526,0 -1.710234,0.427559 -0.668745,0.427558 -1.063415,1.293638 -0.372743,0.811265 -0.515262,2.115866 -0.131557,1.304601 -0.131557,2.861353 0,1.710233 0.120594,2.861352 0.120593,1.151119 0.515262,2.061051 0.36178,0.855117 1.019563,1.304602 0.668745,0.449484 1.765049,0.449484 1.030525,0 1.710233,-0.427558 0.679709,-0.427559 1.052452,-1.293639 z M 81.01949,40.356872 q 0,4.396177 -1.381343,6.457228 -1.370379,2.050088 -4.264621,2.050088 -2.938094,0 -4.29751,-2.082977 -1.348454,-2.082977 -1.348454,-6.402413 0,-4.352326 1.37038,-6.42434 1.370379,-2.082977 4.275584,-2.082977 2.938094,0 4.286547,2.115866 1.359417,2.104903 1.359417,6.369525 z m -2.883279,4.977218 q 0.383706,-0.888006 0.515263,-2.082977 0.142519,-1.205934 0.142519,-2.894241 0,-1.666382 -0.142519,-2.894242 -0.131557,-1.22786 -0.526226,-2.082977 -0.383706,-0.844154 -1.052451,-1.271712 -0.657783,-0.427559 -1.699271,-0.427559 -1.030526,0 -1.710234,0.427559 -0.668745,0.427558 -1.063414,1.293638 -0.372744,0.811265 -0.515263,2.115866 -0.131557,1.304601 -0.131557,2.861353 0,1.710233 0.120594,2.861352 0.120593,1.151119 0.515263,2.061051 0.36178,0.855117 1.019562,1.304602 0.668745,0.449484 1.765049,0.449484 1.030525,0 1.710234,-0.427558 0.679708,-0.427559 1.052451,-1.293639 z m 16.247221,3.190244 h -8.836208 v -1.666382 h 3.398542 v -10.94111 h -3.398542 v -1.490973 q 0.690672,0 1.48001,-0.109631 0.789339,-0.120593 1.194971,-0.339854 0.5043,-0.274076 0.789339,-0.690671 0.296002,-0.427558 0.339854,-1.140156 h 1.699271 v 14.712395 h 3.332763 z m 15.183808,-8.167462 q 0,4.396177 -1.38135,6.457228 -1.37038,2.050088 -4.26462,2.050088 -2.93809,0 -4.297508,-2.082977 -1.348453,-2.082977 -1.348453,-6.402413 0,-4.352326 1.370379,-6.42434 1.370382,-2.082977 4.275582,-2.082977 2.9381,0 4.28655,2.115866 1.35942,2.104903 1.35942,6.369525 z m -2.88328,4.977218 q 0.3837,-0.888006 0.51526,-2.082977 0.14252,-1.205934 0.14252,-2.894241 0,-1.666382 -0.14252,-2.894242 -0.13156,-1.22786 -0.52623,-2.082977 -0.3837,-0.844154 -1.05245,-1.271712 -0.65778,-0.427559 -1.69927,-0.427559 -1.03052,0 -1.71023,0.427559 -0.66875,0.427558 -1.06342,1.293638 -0.37274,0.811265 -0.51526,2.115866 -0.13155,1.304601 -0.13155,2.861353 0,1.710233 0.12059,2.861352 0.12059,1.151119 0.51526,2.061051 0.36178,0.855117 1.01956,1.304602 0.66875,0.449484 1.76505,0.449484 1.03053,0 1.71024,-0.427558 0.6797,-0.427559 1.05245,-1.293639 z m 17.15715,-4.977218 q 0,4.396177 -1.38134,6.457228 -1.37038,2.050088 -4.26462,2.050088 -2.9381,0 -4.29751,-2.082977 -1.34846,-2.082977 -1.34846,-6.402413 0,-4.352326 1.37038,-6.42434 1.37038,-2.082977 4.27559,-2.082977 2.93809,0 4.28655,2.115866 1.35941,2.104903 1.35941,6.369525 z m -2.88328,4.977218 q 0.38371,-0.888006 0.51527,-2.082977 0.14252,-1.205934 0.14252,-2.894241 0,-1.666382 -0.14252,-2.894242 -0.13156,-1.22786 -0.52623,-2.082977 -0.38371,-0.844154 -1.05245,-1.271712 -0.65778,-0.427559 -1.69927,-0.427559 -1.03053,0 -1.71023,0.427559 -0.66875,0.427558 -1.06342,1.293638 -0.37274,0.811265 -0.51526,2.115866 -0.13156,1.304601 -0.13156,2.861353 0,1.710233 0.12059,2.861352 0.1206,1.151119 0.51527,2.061051 0.36178,0.855117 1.01956,1.304602 0.66875,0.449484 1.76505,0.449484 1.03052,0 1.71023,-0.427558 0.67971,-0.427559 1.05245,-1.293639 z m 16.24722,3.190244 h -8.8362 v -1.666382 h 3.39854 v -10.94111 h -3.39854 v -1.490973 q 0.69067,0 1.48001,-0.109631 0.78933,-0.120593 1.19497,-0.339854 0.5043,-0.274076 0.78934,-0.690671 0.296,-0.427558 0.33985,-1.140156 h 1.69927 v 14.712395 h 3.33276 z m 22.16726,0 h -8.83621 v -1.666382 h 3.39855 v -10.94111 h -3.39855 v -1.490973 q 0.69068,0 1.48001,-0.109631 0.78934,-0.120593 1.19498,-0.339854 0.5043,-0.274076 0.78933,-0.690671 0.29601,-0.427558 0.33986,-1.140156 h 1.69927 v 14.712395 h 3.33276 z m 15.18381,-8.167462 q 0,4.396177 -1.38135,6.457228 -1.37038,2.050088 -4.26462,2.050088 -2.93809,0 -4.29751,-2.082977 -1.34845,-2.082977 -1.34845,-6.402413 0,-4.352326 1.37038,-6.42434 1.37038,-2.082977 4.27558,-2.082977 2.9381,0 4.28655,2.115866 1.35942,2.104903 1.35942,6.369525 z m -2.88328,4.977218 q 0.3837,-0.888006 0.51526,-2.082977 0.14252,-1.205934 0.14252,-2.894241 0,-1.666382 -0.14252,-2.894242 -0.13156,-1.22786 -0.52623,-2.082977 -0.3837,-0.844154 -1.05245,-1.271712 -0.65778,-0.427559 -1.69927,-0.427559 -1.03052,0 -1.71023,0.427559 -0.66875,0.427558 -1.06342,1.293638 -0.37274,0.811265 -0.51526,2.115866 -0.13155,1.304601 -0.13155,2.861353 0,1.710233 0.12059,2.861352 0.12059,1.151119 0.51526,2.061051 0.36178,0.855117 1.01956,1.304602 0.66875,0.449484 1.76505,0.449484 1.03053,0 1.71024,-0.427558 0.6797,-0.427559 1.05245,-1.293639 z m 17.15715,-4.977218 q 0,4.396177 -1.38134,6.457228 -1.37038,2.050088 -4.26462,2.050088 -2.9381,0 -4.29752,-2.082977 -1.34845,-2.082977 -1.34845,-6.402413 0,-4.352326 1.37038,-6.42434 1.37038,-2.082977 4.27559,-2.082977 2.93809,0 4.28654,2.115866 1.35942,2.104903 1.35942,6.369525 z m -2.88328,4.977218 q 0.38371,-0.888006 0.51526,-2.082977 0.14252,-1.205934 0.14252,-2.894241 0,-1.666382 -0.14252,-2.894242 -0.13155,-1.22786 -0.52622,-2.082977 -0.38371,-0.844154 -1.05245,-1.271712 -0.65779,-0.427559 -1.69927,-0.427559 -1.03053,0 -1.71024,0.427559 -0.66874,0.427558 -1.06341,1.293638 -0.37275,0.811265 -0.51527,2.115866 -0.13155,1.304601 -0.13155,2.861353 0,1.710233 0.12059,2.861352 0.12059,1.151119 0.51526,2.061051 0.36178,0.855117 1.01957,1.304602 0.66874,0.449484 1.76505,0.449484 1.03052,0 1.71023,-0.427558 0.67971,-0.427559 1.05245,-1.293639 z m 17.15716,-4.977218 q 0,4.396177 -1.38134,6.457228 -1.37038,2.050088 -4.26462,2.050088 -2.9381,0 -4.29752,-2.082977 -1.34845,-2.082977 -1.34845,-6.402413 0,-4.352326 1.37038,-6.42434 1.37038,-2.082977 4.27559,-2.082977 2.93809,0 4.28654,2.115866 1.35942,2.104903 1.35942,6.369525 z m -2.88328,4.977218 q 0.38371,-0.888006 0.51526,-2.082977 0.14252,-1.205934 0.14252,-2.894241 0,-1.666382 -0.14252,-2.894242 -0.13155,-1.22786 -0.52622,-2.082977 -0.38371,-0.844154 -1.05245,-1.271712 -0.65779,-0.427559 -1.69927,-0.427559 -1.03053,0 -1.71024,0.427559 -0.66874,0.427558 -1.06341,1.293638 -0.37275,0.811265 -0.51527,2.115866 -0.13155,1.304601 -0.13155,2.861353 0,1.710233 0.12059,2.861352 0.12059,1.151119 0.51526,2.061051 0.36178,0.855117 1.01957,1.304602 0.66874,0.449484 1.76505,0.449484 1.03052,0 1.71023,-0.427558 0.67971,-0.427559 1.05245,-1.293639 z m 16.24721,3.190244 h -8.83621 v -1.666382 h 3.39855 v -10.94111 h -3.39855 v -1.490973 q 0.69068,0 1.48001,-0.109631 0.78934,-0.120593 1.19498,-0.339854 0.50429,-0.274076 0.78933,-0.690671 0.29601,-0.427558 0.33986,-1.140156 h 1.69927 v 14.712395 h 3.33276 z m 14.27388,0 h -8.83621 v -1.666382 h 3.39855 v -10.94111 h -3.39855 v -1.490973 q 0.69068,0 1.48001,-0.109631 0.78934,-0.120593 1.19498,-0.339854 0.50429,-0.274076 0.78933,-0.690671 0.29601,-0.427558 0.33986,-1.140156 h 1.69927 v 14.712395 h 3.33276 z m 15.1838,-8.167462 q 0,4.396177 -1.38134,6.457228 -1.37038,2.050088 -4.26463,2.050088 -2.93809,0 -4.29751,-2.082977 -1.34845,-2.082977 -1.34845,-6.402413 0,-4.352326 1.37038,-6.42434 1.37038,-2.082977 4.27558,-2.082977 2.9381,0 4.28655,2.115866 1.35942,2.104903 1.35942,6.369525 z m -2.88328,4.977218 q 0.38371,-0.888006 0.51526,-2.082977 0.14252,-1.205934 0.14252,-2.894241 0,-1.666382 -0.14252,-2.894242 -0.13155,-1.22786 -0.52622,-2.082977 -0.38371,-0.844154 -1.05245,-1.271712 -0.65779,-0.427559 -1.69928,-0.427559 -1.03052,0 -1.71023,0.427559 -0.66874,0.427558 -1.06341,1.293638 -0.37275,0.811265 -0.51527,2.115866 -0.13155,1.304601 -0.13155,2.861353 0,1.710233 0.12059,2.861352 0.12059,1.151119 0.51526,2.061051 0.36178,0.855117 1.01957,1.304602 0.66874,0.449484 1.76504,0.449484 1.03053,0 1.71024,-0.427558 0.67971,-0.427559 1.05245,-1.293639 z"
         id="text1"
         style="font-size:22.4523px;line-height:1.25;fill:#ea4535;stroke:#ea4535;stroke-width:0.970139"
         aria-label="1001001 1000110" /></g><g
       id="g3"><path
         d="m 51.561811,181.62125 h -8.836207 v -1.66639 h 3.398541 v -10.94111 h -3.398541 v -1.49097 q 0.690671,0 1.480009,-0.10963 0.789339,-0.12059 1.194971,-0.33985 0.5043,-0.27408 0.789339,-0.69067 0.296002,-0.42756 0.339854,-1.14016 h 1.699271 v 14.71239 h 3.332763 z m 15.183805,-8.16747 q 0,4.39618 -1.381342,6.45723 -1.37038,2.05009 -4.264621,2.05009 -2.938094,0 -4.297511,-2.08298 -1.348453,-2.08297 -1.348453,-6.40241 0,-4.35233 1.370379,-6.42434 1.37038,-2.08298 4.275585,-2.08298 2.938093,0 4.286547,2.11587 1.359416,2.1049 1.359416,6.36952 z m -2.883278,4.97722 q 0.383706,-0.888 0.515263,-2.08297 0.142519,-1.20594 0.142519,-2.89425 0,-1.66638 -0.142519,-2.89424 -0.131557,-1.22786 -0.526226,-2.08297 -0.383707,-0.84416 -1.052452,-1.27172 -0.657782,-0.42756 -1.69927,-0.42756 -1.030526,0 -1.710234,0.42756 -0.668745,0.42756 -1.063415,1.29364 -0.372743,0.81127 -0.515262,2.11587 -0.131557,1.3046 -0.131557,2.86135 0,1.71023 0.120594,2.86135 0.120593,1.15112 0.515262,2.06105 0.36178,0.85512 1.019563,1.3046 0.668745,0.44949 1.765049,0.44949 1.030525,0 1.710233,-0.42756 0.679709,-0.42756 1.052452,-1.29364 z m 17.157152,-4.97722 q 0,4.39618 -1.381343,6.45723 -1.370379,2.05009 -4.264621,2.05009 -2.938094,0 -4.29751,-2.08298 -1.348454,-2.08297 -1.348454,-6.40241 0,-4.35233 1.37038,-6.42434 1.370379,-2.08298 4.275584,-2.08298 2.938094,0 4.286547,2.11587 1.359417,2.1049 1.359417,6.36952 z m -2.883279,4.97722 q 0.383706,-0.888 0.515263,-2.08297 0.142519,-1.20594 0.142519,-2.89425 0,-1.66638 -0.142519,-2.89424 -0.131557,-1.22786 -0.526226,-2.08297 -0.383706,-0.84416 -1.052451,-1.27172 -0.657783,-0.42756 -1.699271,-0.42756 -1.030526,0 -1.710234,0.42756 -0.668745,0.42756 -1.063414,1.29364 -0.372744,0.81127 -0.515263,2.11587 -0.131557,1.3046 -0.131557,2.86135 0,1.71023 0.120594,2.86135 0.120593,1.15112 0.515263,2.06105 0.36178,0.85512 1.019562,1.3046 0.668745,0.44949 1.765049,0.44949 1.030525,0 1.710234,-0.42756 0.679708,-0.42756 1.052451,-1.29364 z m 17.157153,-4.97722 q 0,4.39618 -1.381343,6.45723 -1.370379,2.05009 -4.264621,2.05009 -2.938094,0 -4.29751,-2.08298 -1.348454,-2.08297 -1.348454,-6.40241 0,-4.35233 1.37038,-6.42434 1.370379,-2.08298 4.275584,-2.08298 2.938094,0 4.286548,2.11587 1.359416,2.1049 1.359416,6.36952 z m -2.883279,4.97722 q 0.383707,-0.888 0.515263,-2.08297 0.14252,-1.20594 0.14252,-2.89425 0,-1.66638 -0.14252,-2.89424 -0.131556,-1.22786 -0.526226,-2.08297 -0.383706,-0.84416 -1.052451,-1.27172 -0.657782,-0.42756 -1.699271,-0.42756 -1.030525,0 -1.710234,0.42756 -0.668745,0.42756 -1.063414,1.29364 -0.372743,0.81127 -0.515263,2.11587 -0.131556,1.3046 -0.131556,2.86135 0,1.71023 0.120593,2.86135 0.120594,1.15112 0.515263,2.06105 0.36178,0.85512 1.019562,1.3046 0.668746,0.44949 1.765049,0.44949 1.030526,0 1.710234,-0.42756 0.679708,-0.42756 1.052451,-1.29364 z m 17.157155,-4.97722 q 0,4.39618 -1.38135,6.45723 -1.37038,2.05009 -4.26462,2.05009 -2.93809,0 -4.297508,-2.08298 -1.348453,-2.08297 -1.348453,-6.40241 0,-4.35233 1.370379,-6.42434 1.370382,-2.08298 4.275582,-2.08298 2.9381,0 4.28655,2.11587 1.35942,2.1049 1.35942,6.36952 z m -2.88328,4.97722 q 0.3837,-0.888 0.51526,-2.08297 0.14252,-1.20594 0.14252,-2.89425 0,-1.66638 -0.14252,-2.89424 -0.13156,-1.22786 -0.52623,-2.08297 -0.3837,-0.84416 -1.05245,-1.27172 -0.65778,-0.42756 -1.69927,-0.42756 -1.03052,0 -1.71023,0.42756 -0.66875,0.42756 -1.06342,1.29364 -0.37274,0.81127 -0.51526,2.11587 -0.13155,1.3046 -0.13155,2.86135 0,1.71023 0.12059,2.86135 0.12059,1.15112 0.51526,2.06105 0.36178,0.85512 1.01956,1.3046 0.66875,0.44949 1.76505,0.44949 1.03053,0 1.71024,-0.42756 0.6797,-0.42756 1.05245,-1.29364 z m 16.24722,3.19025 h -8.83621 v -1.66639 h 3.39854 v -10.94111 h -3.39854 v -1.49097 q 0.69067,0 1.48001,-0.10963 0.78934,-0.12059 1.19497,-0.33985 0.5043,-0.27408 0.78934,-0.69067 0.296,-0.42756 0.33986,-1.14016 h 1.69927 v 14.71239 h 3.33276 z m 14.27387,0 h -8.8362 v -1.66639 h 3.39854 v -10.94111 h -3.39854 v -1.49097 q 0.69067,0 1.48001,-0.10963 0.78933,-0.12059 1.19497,-0.33985 0.5043,-0.27408 0.78934,-0.69067 0.296,-0.42756 0.33985,-1.14016 h 1.69927 v 14.71239 h 3.33276 z m 22.16726,0 h -8.83621 v -1.66639 h 3.39855 v -10.94111 h -3.39855 v -1.49097 q 0.69068,0 1.48001,-0.10963 0.78934,-0.12059 1.19498,-0.33985 0.5043,-0.27408 0.78933,-0.69067 0.29601,-0.42756 0.33986,-1.14016 h 1.69927 v 14.71239 h 3.33276 z m 15.18381,-8.16747 q 0,4.39618 -1.38135,6.45723 -1.37038,2.05009 -4.26462,2.05009 -2.93809,0 -4.29751,-2.08298 -1.34845,-2.08297 -1.34845,-6.40241 0,-4.35233 1.37038,-6.42434 1.37038,-2.08298 4.27558,-2.08298 2.9381,0 4.28655,2.11587 1.35942,2.1049 1.35942,6.36952 z m -2.88328,4.97722 q 0.3837,-0.888 0.51526,-2.08297 0.14252,-1.20594 0.14252,-2.89425 0,-1.66638 -0.14252,-2.89424 -0.13156,-1.22786 -0.52623,-2.08297 -0.3837,-0.84416 -1.05245,-1.27172 -0.65778,-0.42756 -1.69927,-0.42756 -1.03052,0 -1.71023,0.42756 -0.66875,0.42756 -1.06342,1.29364 -0.37274,0.81127 -0.51526,2.11587 -0.13155,1.3046 -0.13155,2.86135 0,1.71023 0.12059,2.86135 0.12059,1.15112 0.51526,2.06105 0.36178,0.85512 1.01956,1.3046 0.66875,0.44949 1.76505,0.44949 1.03053,0 1.71024,-0.42756 0.6797,-0.42756 1.05245,-1.29364 z m 17.15715,-4.97722 q 0,4.39618 -1.38134,6.45723 -1.37038,2.05009 -4.26462,2.05009 -2.9381,0 -4.29752,-2.08298 -1.34845,-2.08297 -1.34845,-6.40241 0,-4.35233 1.37038,-6.42434 1.37038,-2.08298 4.27559,-2.08298 2.93809,0 4.28654,2.11587 1.35942,2.1049 1.35942,6.36952 z m -2.88328,4.97722 q 0.38371,-0.888 0.51526,-2.08297 0.14252,-1.20594 0.14252,-2.89425 0,-1.66638 -0.14252,-2.89424 -0.13155,-1.22786 -0.52622,-2.08297 -0.38371,-0.84416 -1.05245,-1.27172 -0.65779,-0.42756 -1.69927,-0.42756 -1.03053,0 -1.71024,0.42756 -0.66874,0.42756 -1.06341,1.29364 -0.37275,0.81127 -0.51527,2.11587 -0.13155,1.3046 -0.13155,2.86135 0,1.71023 0.12059,2.86135 0.12059,1.15112 0.51526,2.06105 0.36178,0.85512 1.01957,1.3046 0.66874,0.44949 1.76505,0.44949 1.03052,0 1.71023,-0.42756 0.67971,-0.42756 1.05245,-1.29364 z m 17.15716,-4.97722 q 0,4.39618 -1.38134,6.45723 -1.37038,2.05009 -4.26462,2.05009 -2.9381,0 -4.29752,-2.08298 -1.34845,-2.08297 -1.34845,-6.40241 0,-4.35233 1.37038,-6.42434 1.37038,-2.08298 4.27559,-2.08298 2.93809,0 4.28654,2.11587 1.35942,2.1049 1.35942,6.36952 z m -2.88328,4.97722 q 0.38371,-0.888 0.51526,-2.08297 0.14252,-1.20594 0.14252,-2.89425 0,-1.66638 -0.14252,-2.89424 -0.13155,-1.22786 -0.52622,-2.08297 -0.38371,-0.84416 -1.05245,-1.27172 -0.65779,-0.42756 -1.69927,-0.42756 -1.03053,0 -1.71024,0.42756 -0.66874,0.42756 -1.06341,1.29364 -0.37275,0.81127 -0.51527,2.11587 -0.13155,1.3046 -0.13155,2.86135 0,1.71023 0.12059,2.86135 0.12059,1.15112 0.51526,2.06105 0.36178,0.85512 1.01957,1.3046 0.66874,0.44949 1.76505,0.44949 1.03052,0 1.71023,-0.42756 0.67971,-0.42756 1.05245,-1.29364 z m 16.24721,3.19025 h -8.83621 v -1.66639 h 3.39855 v -10.94111 h -3.39855 v -1.49097 q 0.69068,0 1.48001,-0.10963 0.78934,-0.12059 1.19498,-0.33985 0.50429,-0.27408 0.78933,-0.69067 0.29601,-0.42756 0.33986,-1.14016 h 1.69927 v 14.71239 h 3.33276 z m 15.18381,-8.16747 q 0,4.39618 -1.38134,6.45723 -1.37038,2.05009 -4.26462,2.05009 -2.93809,0 -4.29751,-2.08298 -1.34845,-2.08297 -1.34845,-6.40241 0,-4.35233 1.37038,-6.42434 1.37038,-2.08298 4.27558,-2.08298 2.93809,0 4.28655,2.11587 1.35941,2.1049 1.35941,6.36952 z m -2.88327,4.97722 q 0.3837,-0.888 0.51526,-2.08297 0.14252,-1.20594 0.14252,-2.89425 0,-1.66638 -0.14252,-2.89424 -0.13156,-1.22786 -0.52623,-2.08297 -0.3837,-0.84416 -1.05245,-1.27172 -0.65778,-0.42756 -1.69927,-0.42756 -1.03053,0 -1.71023,0.42756 -0.66875,0.42756 -1.06342,1.29364 -0.37274,0.81127 -0.51526,2.11587 -0.13156,1.3046 -0.13156,2.86135 0,1.71023 0.1206,2.86135 0.12059,1.15112 0.51526,2.06105 0.36178,0.85512 1.01956,1.3046 0.66875,0.44949 1.76505,0.44949 1.03053,0 1.71023,-0.42756 0.67971,-0.42756 1.05246,-1.29364 z m 16.24721,3.19025 h -8.83621 v -1.66639 h 3.39854 v -10.94111 h -3.39854 v -1.49097 q 0.69067,0 1.48001,-0.10963 0.78934,-0.12059 1.19497,-0.33985 0.5043,-0.27408 0.78934,-0.69067 0.296,-0.42756 0.33985,-1.14016 h 1.69927 v 14.71239 h 3.33277 z"
         id="text24"
         style="font-size:22.4523px;line-height:1.25;fill:#4285f4;stroke:#4285f4;stroke-width:0.970139"
         aria-label="1000011 1000101" /></g><g
       id="g2"><path
         d="m 51.561811,128.38249 h -8.836207 v -1.66638 h 3.398541 V 115.775 h -3.398541 v -1.49097 q 0.690671,0 1.480009,-0.10963 0.789339,-0.1206 1.194971,-0.33986 0.5043,-0.27407 0.789339,-0.69067 0.296002,-0.42756 0.339854,-1.14015 h 1.699271 v 14.71239 h 3.332763 z m 15.183805,-8.16746 q 0,4.39618 -1.381342,6.45723 -1.37038,2.05009 -4.264621,2.05009 -2.938094,0 -4.297511,-2.08298 -1.348453,-2.08298 -1.348453,-6.40241 0,-4.35233 1.370379,-6.42434 1.37038,-2.08298 4.275585,-2.08298 2.938093,0 4.286547,2.11587 1.359416,2.1049 1.359416,6.36952 z m -2.883278,4.97722 q 0.383706,-0.88801 0.515263,-2.08298 0.142519,-1.20593 0.142519,-2.89424 0,-1.66638 -0.142519,-2.89424 -0.131557,-1.22786 -0.526226,-2.08298 -0.383707,-0.84415 -1.052452,-1.27171 -0.657782,-0.42756 -1.69927,-0.42756 -1.030526,0 -1.710234,0.42756 -0.668745,0.42756 -1.063415,1.29364 -0.372743,0.81126 -0.515262,2.11586 -0.131557,1.3046 -0.131557,2.86136 0,1.71023 0.120594,2.86135 0.120593,1.15112 0.515262,2.06105 0.36178,0.85512 1.019563,1.3046 0.668745,0.44949 1.765049,0.44949 1.030525,0 1.710233,-0.42756 0.679709,-0.42756 1.052452,-1.29364 z m 17.157152,-4.97722 q 0,4.39618 -1.381343,6.45723 -1.370379,2.05009 -4.264621,2.05009 -2.938094,0 -4.29751,-2.08298 -1.348454,-2.08298 -1.348454,-6.40241 0,-4.35233 1.37038,-6.42434 1.370379,-2.08298 4.275584,-2.08298 2.938094,0 4.286547,2.11587 1.359417,2.1049 1.359417,6.36952 z m -2.883279,4.97722 q 0.383706,-0.88801 0.515263,-2.08298 0.142519,-1.20593 0.142519,-2.89424 0,-1.66638 -0.142519,-2.89424 -0.131557,-1.22786 -0.526226,-2.08298 -0.383706,-0.84415 -1.052451,-1.27171 -0.657783,-0.42756 -1.699271,-0.42756 -1.030526,0 -1.710234,0.42756 -0.668745,0.42756 -1.063414,1.29364 -0.372744,0.81126 -0.515263,2.11586 -0.131557,1.3046 -0.131557,2.86136 0,1.71023 0.120594,2.86135 0.120593,1.15112 0.515263,2.06105 0.36178,0.85512 1.019562,1.3046 0.668745,0.44949 1.765049,0.44949 1.030525,0 1.710234,-0.42756 0.679708,-0.42756 1.052451,-1.29364 z m 17.157153,-4.97722 q 0,4.39618 -1.381343,6.45723 -1.370379,2.05009 -4.264621,2.05009 -2.938094,0 -4.29751,-2.08298 -1.348454,-2.08298 -1.348454,-6.40241 0,-4.35233 1.37038,-6.42434 1.370379,-2.08298 4.275584,-2.08298 2.938094,0 4.286548,2.11587 1.359416,2.1049 1.359416,6.36952 z m -2.883279,4.97722 q 0.383707,-0.88801 0.515263,-2.08298 0.14252,-1.20593 0.14252,-2.89424 0,-1.66638 -0.14252,-2.89424 -0.131556,-1.22786 -0.526226,-2.08298 -0.383706,-0.84415 -1.052451,-1.27171 -0.657782,-0.42756 -1.699271,-0.42756 -1.030525,0 -1.710234,0.42756 -0.668745,0.42756 -1.063414,1.29364 -0.372743,0.81126 -0.515263,2.11586 -0.131556,1.3046 -0.131556,2.86136 0,1.71023 0.120593,2.86135 0.120594,1.15112 0.515263,2.06105 0.36178,0.85512 1.019562,1.3046 0.668746,0.44949 1.765049,0.44949 1.030526,0 1.710234,-0.42756 0.679708,-0.42756 1.052451,-1.29364 z m 16.247215,3.19024 h -8.836203 v -1.66638 h 3.398543 V 115.775 h -3.398543 v -1.49097 q 0.690673,0 1.480013,-0.10963 0.78934,-0.1206 1.19497,-0.33986 0.5043,-0.27407 0.78934,-0.69067 0.296,-0.42756 0.33985,-1.14015 h 1.69927 v 14.71239 h 3.33276 z m 15.18381,-8.16746 q 0,4.39618 -1.38134,6.45723 -1.37038,2.05009 -4.26462,2.05009 -2.9381,0 -4.29751,-2.08298 -1.34846,-2.08298 -1.34846,-6.40241 0,-4.35233 1.37038,-6.42434 1.37038,-2.08298 4.27559,-2.08298 2.93809,0 4.28655,2.11587 1.35941,2.1049 1.35941,6.36952 z m -2.88328,4.97722 q 0.38371,-0.88801 0.51527,-2.08298 0.14252,-1.20593 0.14252,-2.89424 0,-1.66638 -0.14252,-2.89424 -0.13156,-1.22786 -0.52623,-2.08298 -0.38371,-0.84415 -1.05245,-1.27171 -0.65778,-0.42756 -1.69927,-0.42756 -1.03053,0 -1.71023,0.42756 -0.66875,0.42756 -1.06342,1.29364 -0.37274,0.81126 -0.51526,2.11586 -0.13156,1.3046 -0.13156,2.86136 0,1.71023 0.12059,2.86135 0.1206,1.15112 0.51527,2.06105 0.36178,0.85512 1.01956,1.3046 0.66875,0.44949 1.76505,0.44949 1.03052,0 1.71023,-0.42756 0.67971,-0.42756 1.05245,-1.29364 z m 16.24722,3.19024 h -8.8362 v -1.66638 h 3.39854 V 115.775 h -3.39854 v -1.49097 q 0.69067,0 1.48001,-0.10963 0.78933,-0.1206 1.19497,-0.33986 0.5043,-0.27407 0.78934,-0.69067 0.296,-0.42756 0.33985,-1.14015 h 1.69927 v 14.71239 h 3.33276 z m 22.16726,0 h -8.83621 v -1.66638 h 3.39855 V 115.775 h -3.39855 v -1.49097 q 0.69068,0 1.48001,-0.10963 0.78934,-0.1206 1.19498,-0.33986 0.5043,-0.27407 0.78933,-0.69067 0.29601,-0.42756 0.33986,-1.14015 h 1.69927 v 14.71239 h 3.33276 z m 15.18381,-8.16746 q 0,4.39618 -1.38135,6.45723 -1.37038,2.05009 -4.26462,2.05009 -2.93809,0 -4.29751,-2.08298 -1.34845,-2.08298 -1.34845,-6.40241 0,-4.35233 1.37038,-6.42434 1.37038,-2.08298 4.27558,-2.08298 2.9381,0 4.28655,2.11587 1.35942,2.1049 1.35942,6.36952 z m -2.88328,4.97722 q 0.3837,-0.88801 0.51526,-2.08298 0.14252,-1.20593 0.14252,-2.89424 0,-1.66638 -0.14252,-2.89424 -0.13156,-1.22786 -0.52623,-2.08298 -0.3837,-0.84415 -1.05245,-1.27171 -0.65778,-0.42756 -1.69927,-0.42756 -1.03052,0 -1.71023,0.42756 -0.66875,0.42756 -1.06342,1.29364 -0.37274,0.81126 -0.51526,2.11586 -0.13155,1.3046 -0.13155,2.86136 0,1.71023 0.12059,2.86135 0.12059,1.15112 0.51526,2.06105 0.36178,0.85512 1.01956,1.3046 0.66875,0.44949 1.76505,0.44949 1.03053,0 1.71024,-0.42756 0.6797,-0.42756 1.05245,-1.29364 z m 17.15715,-4.97722 q 0,4.39618 -1.38134,6.45723 -1.37038,2.05009 -4.26462,2.05009 -2.9381,0 -4.29752,-2.08298 -1.34845,-2.08298 -1.34845,-6.40241 0,-4.35233 1.37038,-6.42434 1.37038,-2.08298 4.27559,-2.08298 2.93809,0 4.28654,2.11587 1.35942,2.1049 1.35942,6.36952 z m -2.88328,4.97722 q 0.38371,-0.88801 0.51526,-2.08298 0.14252,-1.20593 0.14252,-2.89424 0,-1.66638 -0.14252,-2.89424 -0.13155,-1.22786 -0.52622,-2.08298 -0.38371,-0.84415 -1.05245,-1.27171 -0.65779,-0.42756 -1.69927,-0.42756 -1.03053,0 -1.71024,0.42756 -0.66874,0.42756 -1.06341,1.29364 -0.37275,0.81126 -0.51527,2.11586 -0.13155,1.3046 -0.13155,2.86136 0,1.71023 0.12059,2.86135 0.12059,1.15112 0.51526,2.06105 0.36178,0.85512 1.01957,1.3046 0.66874,0.44949 1.76505,0.44949 1.03052,0 1.71023,-0.42756 0.67971,-0.42756 1.05245,-1.29364 z m 16.24723,3.19024 h -8.83621 v -1.66638 h 3.39854 V 115.775 h -3.39854 v -1.49097 q 0.69067,0 1.48001,-0.10963 0.78934,-0.1206 1.19497,-0.33986 0.5043,-0.27407 0.78934,-0.69067 0.296,-0.42756 0.33985,-1.14015 h 1.69927 v 14.71239 h 3.33277 z m 14.27386,0 h -8.83621 v -1.66638 h 3.39855 V 115.775 h -3.39855 v -1.49097 q 0.69068,0 1.48001,-0.10963 0.78934,-0.1206 1.19498,-0.33986 0.50429,-0.27407 0.78933,-0.69067 0.29601,-0.42756 0.33986,-1.14015 h 1.69927 v 14.71239 h 3.33276 z m 15.18381,-8.16746 q 0,4.39618 -1.38134,6.45723 -1.37038,2.05009 -4.26462,2.05009 -2.93809,0 -4.29751,-2.08298 -1.34845,-2.08298 -1.34845,-6.40241 0,-4.35233 1.37038,-6.42434 1.37038,-2.08298 4.27558,-2.08298 2.93809,0 4.28655,2.11587 1.35941,2.1049 1.35941,6.36952 z m -2.88327,4.97722 q 0.3837,-0.88801 0.51526,-2.08298 0.14252,-1.20593 0.14252,-2.89424 0,-1.66638 -0.14252,-2.89424 -0.13156,-1.22786 -0.52623,-2.08298 -0.3837,-0.84415 -1.05245,-1.27171 -0.65778,-0.42756 -1.69927,-0.42756 -1.03053,0 -1.71023,0.42756 -0.66875,0.42756 -1.06342,1.29364 -0.37274,0.81126 -0.51526,2.11586 -0.13156,1.3046 -0.13156,2.86136 0,1.71023 0.1206,2.86135 0.12059,1.15112 0.51526,2.06105 0.36178,0.85512 1.01956,1.3046 0.66875,0.44949 1.76505,0.44949 1.03053,0 1.71023,-0.42756 0.67971,-0.42756 1.05246,-1.29364 z m 17.15714,-4.97722 q 0,4.39618 -1.38134,6.45723 -1.37038,2.05009 -4.26463,2.05009 -2.93809,0 -4.29751,-2.08298 -1.34845,-2.08298 -1.34845,-6.40241 0,-4.35233 1.37038,-6.42434 1.37038,-2.08298 4.27558,-2.08298 2.9381,0 4.28655,2.11587 1.35942,2.1049 1.35942,6.36952 z m -2.88328,4.97722 q 0.38371,-0.88801 0.51526,-2.08298 0.14252,-1.20593 0.14252,-2.89424 0,-1.66638 -0.14252,-2.89424 -0.13155,-1.22786 -0.52622,-2.08298 -0.38371,-0.84415 -1.05245,-1.27171 -0.65779,-0.42756 -1.69928,-0.42756 -1.03052,0 -1.71023,0.42756 -0.66874,0.42756 -1.06341,1.29364 -0.37275,0.81126 -0.51527,2.11586 -0.13155,1.3046 -0.13155,2.86136 0,1.71023 0.12059,2.86135 0.12059,1.15112 0.51526,2.06105 0.36178,0.85512 1.01957,1.3046 0.66874,0.44949 1.76504,0.44949 1.03053,0 1.71024,-0.42756 0.67971,-0.42756 1.05245,-1.29364 z"
         id="text18"
         style="font-size:22.4523px;line-height:1.25;fill:#34a853;stroke:#34a853;stroke-width:0.970139"
         aria-label="1000101 1001100" /><path
         d="m 51.561811,155.00188 h -8.836207 v -1.66638 h 3.398541 v -10.94112 h -3.398541 v -1.49097 q 0.690671,0 1.480009,-0.10963 0.789339,-0.12059 1.194971,-0.33985 0.5043,-0.27408 0.789339,-0.69067 0.296002,-0.42756 0.339854,-1.14016 h 1.699271 v 14.7124 h 3.332763 z m 15.183805,-8.16747 q 0,4.39618 -1.381342,6.45723 -1.37038,2.05009 -4.264621,2.05009 -2.938094,0 -4.297511,-2.08298 -1.348453,-2.08297 -1.348453,-6.40241 0,-4.35232 1.370379,-6.42434 1.37038,-2.08298 4.275585,-2.08298 2.938093,0 4.286547,2.11587 1.359416,2.1049 1.359416,6.36952 z m -2.883278,4.97722 q 0.383706,-0.888 0.515263,-2.08297 0.142519,-1.20594 0.142519,-2.89425 0,-1.66638 -0.142519,-2.89424 -0.131557,-1.22786 -0.526226,-2.08297 -0.383707,-0.84416 -1.052452,-1.27172 -0.657782,-0.42755 -1.69927,-0.42755 -1.030526,0 -1.710234,0.42755 -0.668745,0.42756 -1.063415,1.29364 -0.372743,0.81127 -0.515262,2.11587 -0.131557,1.3046 -0.131557,2.86135 0,1.71023 0.120594,2.86135 0.120593,1.15112 0.515262,2.06105 0.36178,0.85512 1.019563,1.30461 0.668745,0.44948 1.765049,0.44948 1.030525,0 1.710233,-0.42756 0.679709,-0.42756 1.052452,-1.29364 z m 16.24722,3.19025 H 71.27335 v -1.66638 h 3.398542 V 142.39438 H 71.27335 v -1.49097 q 0.690671,0 1.48001,-0.10963 0.789339,-0.12059 1.194971,-0.33985 0.5043,-0.27408 0.789339,-0.69067 0.296002,-0.42756 0.339854,-1.14016 h 1.699271 v 14.7124 h 3.332763 z m 15.183806,-8.16747 q 0,4.39618 -1.381343,6.45723 -1.370379,2.05009 -4.264621,2.05009 -2.938094,0 -4.29751,-2.08298 -1.348454,-2.08297 -1.348454,-6.40241 0,-4.35232 1.37038,-6.42434 1.370379,-2.08298 4.275584,-2.08298 2.938094,0 4.286548,2.11587 1.359416,2.1049 1.359416,6.36952 z m -2.883279,4.97722 q 0.383707,-0.888 0.515263,-2.08297 0.14252,-1.20594 0.14252,-2.89425 0,-1.66638 -0.14252,-2.89424 -0.131556,-1.22786 -0.526226,-2.08297 -0.383706,-0.84416 -1.052451,-1.27172 -0.657782,-0.42755 -1.699271,-0.42755 -1.030525,0 -1.710234,0.42755 -0.668745,0.42756 -1.063414,1.29364 -0.372743,0.81127 -0.515263,2.11587 -0.131556,1.3046 -0.131556,2.86135 0,1.71023 0.120593,2.86135 0.120594,1.15112 0.515263,2.06105 0.36178,0.85512 1.019562,1.30461 0.668746,0.44948 1.765049,0.44948 1.030526,0 1.710234,-0.42756 0.679708,-0.42756 1.052451,-1.29364 z m 17.157155,-4.97722 q 0,4.39618 -1.38135,6.45723 -1.37038,2.05009 -4.26462,2.05009 -2.93809,0 -4.297508,-2.08298 -1.348453,-2.08297 -1.348453,-6.40241 0,-4.35232 1.370379,-6.42434 1.370382,-2.08298 4.275582,-2.08298 2.9381,0 4.28655,2.11587 1.35942,2.1049 1.35942,6.36952 z m -2.88328,4.97722 q 0.3837,-0.888 0.51526,-2.08297 0.14252,-1.20594 0.14252,-2.89425 0,-1.66638 -0.14252,-2.89424 -0.13156,-1.22786 -0.52623,-2.08297 -0.3837,-0.84416 -1.05245,-1.27172 -0.65778,-0.42755 -1.69927,-0.42755 -1.03052,0 -1.71023,0.42755 -0.66875,0.42756 -1.06342,1.29364 -0.37274,0.81127 -0.51526,2.11587 -0.13155,1.3046 -0.13155,2.86135 0,1.71023 0.12059,2.86135 0.12059,1.15112 0.51526,2.06105 0.36178,0.85512 1.01956,1.30461 0.66875,0.44948 1.76505,0.44948 1.03053,0 1.71024,-0.42756 0.6797,-0.42756 1.05245,-1.29364 z m 16.24722,3.19025 h -8.83621 v -1.66638 h 3.39854 v -10.94112 h -3.39854 v -1.49097 q 0.69067,0 1.48001,-0.10963 0.78934,-0.12059 1.19497,-0.33985 0.5043,-0.27408 0.78934,-0.69067 0.296,-0.42756 0.33986,-1.14016 h 1.69927 v 14.7124 h 3.33276 z m 14.27387,0 h -8.8362 v -1.66638 h 3.39854 v -10.94112 h -3.39854 v -1.49097 q 0.69067,0 1.48001,-0.10963 0.78933,-0.12059 1.19497,-0.33985 0.5043,-0.27408 0.78934,-0.69067 0.296,-0.42756 0.33985,-1.14016 h 1.69927 v 14.7124 h 3.33276 z m 22.16726,0 h -8.83621 v -1.66638 h 3.39855 v -10.94112 h -3.39855 v -1.49097 q 0.69068,0 1.48001,-0.10963 0.78934,-0.12059 1.19498,-0.33985 0.5043,-0.27408 0.78933,-0.69067 0.29601,-0.42756 0.33986,-1.14016 h 1.69927 v 14.7124 h 3.33276 z m 15.18381,-8.16747 q 0,4.39618 -1.38135,6.45723 -1.37038,2.05009 -4.26462,2.05009 -2.93809,0 -4.29751,-2.08298 -1.34845,-2.08297 -1.34845,-6.40241 0,-4.35232 1.37038,-6.42434 1.37038,-2.08298 4.27558,-2.08298 2.9381,0 4.28655,2.11587 1.35942,2.1049 1.35942,6.36952 z m -2.88328,4.97722 q 0.3837,-0.888 0.51526,-2.08297 0.14252,-1.20594 0.14252,-2.89425 0,-1.66638 -0.14252,-2.89424 -0.13156,-1.22786 -0.52623,-2.08297 -0.3837,-0.84416 -1.05245,-1.27172 -0.65778,-0.42755 -1.69927,-0.42755 -1.03052,0 -1.71023,0.42755 -0.66875,0.42756 -1.06342,1.29364 -0.37274,0.81127 -0.51526,2.11587 -0.13155,1.3046 -0.13155,2.86135 0,1.71023 0.12059,2.86135 0.12059,1.15112 0.51526,2.06105 0.36178,0.85512 1.01956,1.30461 0.66875,0.44948 1.76505,0.44948 1.03053,0 1.71024,-0.42756 0.6797,-0.42756 1.05245,-1.29364 z m 17.15715,-4.97722 q 0,4.39618 -1.38134,6.45723 -1.37038,2.05009 -4.26462,2.05009 -2.9381,0 -4.29752,-2.08298 -1.34845,-2.08297 -1.34845,-6.40241 0,-4.35232 1.37038,-6.42434 1.37038,-2.08298 4.27559,-2.08298 2.93809,0 4.28654,2.11587 1.35942,2.1049 1.35942,6.36952 z m -2.88328,4.97722 q 0.38371,-0.888 0.51526,-2.08297 0.14252,-1.20594 0.14252,-2.89425 0,-1.66638 -0.14252,-2.89424 -0.13155,-1.22786 -0.52622,-2.08297 -0.38371,-0.84416 -1.05245,-1.27172 -0.65779,-0.42755 -1.69927,-0.42755 -1.03053,0 -1.71024,0.42755 -0.66874,0.42756 -1.06341,1.29364 -0.37275,0.81127 -0.51527,2.11587 -0.13155,1.3046 -0.13155,2.86135 0,1.71023 0.12059,2.86135 0.12059,1.15112 0.51526,2.06105 0.36178,0.85512 1.01957,1.30461 0.66874,0.44948 1.76505,0.44948 1.03052,0 1.71023,-0.42756 0.67971,-0.42756 1.05245,-1.29364 z m 17.15716,-4.97722 q 0,4.39618 -1.38134,6.45723 -1.37038,2.05009 -4.26462,2.05009 -2.9381,0 -4.29752,-2.08298 -1.34845,-2.08297 -1.34845,-6.40241 0,-4.35232 1.37038,-6.42434 1.37038,-2.08298 4.27559,-2.08298 2.93809,0 4.28654,2.11587 1.35942,2.1049 1.35942,6.36952 z m -2.88328,4.97722 q 0.38371,-0.888 0.51526,-2.08297 0.14252,-1.20594 0.14252,-2.89425 0,-1.66638 -0.14252,-2.89424 -0.13155,-1.22786 -0.52622,-2.08297 -0.38371,-0.84416 -1.05245,-1.27172 -0.65779,-0.42755 -1.69927,-0.42755 -1.03053,0 -1.71024,0.42755 -0.66874,0.42756 -1.06341,1.29364 -0.37275,0.81127 -0.51527,2.11587 -0.13155,1.3046 -0.13155,2.86135 0,1.71023 0.12059,2.86135 0.12059,1.15112 0.51526,2.06105 0.36178,0.85512 1.01957,1.30461 0.66874,0.44948 1.76505,0.44948 1.03052,0 1.71023,-0.42756 0.67971,-0.42756 1.05245,-1.29364 z m 16.24721,3.19025 h -8.83621 v -1.66638 h 3.39855 v -10.94112 h -3.39855 v -1.49097 q 0.69068,0 1.48001,-0.10963 0.78934,-0.12059 1.19498,-0.33985 0.50429,-0.27408 0.78933,-0.69067 0.29601,-0.42756 0.33986,-1.14016 h 1.69927 v 14.7124 h 3.33276 z m 15.18381,-8.16747 q 0,4.39618 -1.38134,6.45723 -1.37038,2.05009 -4.26462,2.05009 -2.93809,0 -4.29751,-2.08298 -1.34845,-2.08297 -1.34845,-6.40241 0,-4.35232 1.37038,-6.42434 1.37038,-2.08298 4.27558,-2.08298 2.93809,0 4.28655,2.11587 1.35941,2.1049 1.35941,6.36952 z m -2.88327,4.97722 q 0.3837,-0.888 0.51526,-2.08297 0.14252,-1.20594 0.14252,-2.89425 0,-1.66638 -0.14252,-2.89424 -0.13156,-1.22786 -0.52623,-2.08297 -0.3837,-0.84416 -1.05245,-1.27172 -0.65778,-0.42755 -1.69927,-0.42755 -1.03053,0 -1.71023,0.42755 -0.66875,0.42756 -1.06342,1.29364 -0.37274,0.81127 -0.51526,2.11587 -0.13156,1.3046 -0.13156,2.86135 0,1.71023 0.1206,2.86135 0.12059,1.15112 0.51526,2.06105 0.36178,0.85512 1.01956,1.30461 0.66875,0.44948 1.76505,0.44948 1.03053,0 1.71023,-0.42756 0.67971,-0.42756 1.05246,-1.29364 z m 16.24721,3.19025 h -8.83621 v -1.66638 h 3.39854 v -10.94112 h -3.39854 v -1.49097 q 0.69067,0 1.48001,-0.10963 0.78934,-0.12059 1.19497,-0.33985 0.5043,-0.27408 0.78934,-0.69067 0.296,-0.42756 0.33985,-1.14016 h 1.69927 v 14.7124 h 3.33277 z"
         id="text36"
         style="font-size:22.4523px;line-height:1.25;fill:#34a853;stroke:#34a853;stroke-width:0.970139"
         aria-label="1010011 1000101" /></g><g
       id="g1"><path
         d="m 51.561811,75.143723 h -8.836207 v -1.666382 h 3.398541 V 62.53623 h -3.398541 v -1.490973 q 0.690671,0 1.480009,-0.10963 0.789339,-0.120593 1.194971,-0.339854 0.5043,-0.274076 0.789339,-0.690671 0.296002,-0.427559 0.339854,-1.140156 h 1.699271 v 14.712395 h 3.332763 z M 66.745616,66.97626 q 0,4.396178 -1.381342,6.457229 -1.37038,2.050088 -4.264621,2.050088 -2.938094,0 -4.297511,-2.082977 -1.348453,-2.082977 -1.348453,-6.402414 0,-4.352325 1.370379,-6.424339 1.37038,-2.082977 4.275585,-2.082977 2.938093,0 4.286547,2.115866 1.359416,2.104903 1.359416,6.369524 z m -2.883278,4.977219 q 0.383706,-0.888006 0.515263,-2.082977 0.142519,-1.205934 0.142519,-2.894242 0,-1.666381 -0.142519,-2.894241 -0.131557,-1.227861 -0.526226,-2.082977 -0.383707,-0.844154 -1.052452,-1.271713 -0.657782,-0.427558 -1.69927,-0.427558 -1.030526,0 -1.710234,0.427558 -0.668745,0.427559 -1.063415,1.293639 -0.372743,0.811264 -0.515262,2.115866 -0.131557,1.304601 -0.131557,2.861352 0,1.710234 0.120594,2.861353 0.120593,1.151119 0.515262,2.061051 0.36178,0.855117 1.019563,1.304601 0.668745,0.449485 1.765049,0.449485 1.030525,0 1.710233,-0.427559 0.679709,-0.427558 1.052452,-1.293638 z m 16.24722,3.190244 H 71.27335 v -1.666382 h 3.398542 V 62.53623 H 71.27335 v -1.490973 q 0.690671,0 1.48001,-0.10963 0.789339,-0.120593 1.194971,-0.339854 0.5043,-0.274076 0.789339,-0.690671 0.296002,-0.427559 0.339854,-1.140156 h 1.699271 v 14.712395 h 3.332763 z M 95.293364,66.97626 q 0,4.396178 -1.381343,6.457229 -1.370379,2.050088 -4.264621,2.050088 -2.938094,0 -4.29751,-2.082977 -1.348454,-2.082977 -1.348454,-6.402414 0,-4.352325 1.37038,-6.424339 1.370379,-2.082977 4.275584,-2.082977 2.938094,0 4.286548,2.115866 1.359416,2.104903 1.359416,6.369524 z m -2.883279,4.977219 q 0.383707,-0.888006 0.515263,-2.082977 0.14252,-1.205934 0.14252,-2.894242 0,-1.666381 -0.14252,-2.894241 -0.131556,-1.227861 -0.526226,-2.082977 -0.383706,-0.844154 -1.052451,-1.271713 -0.657782,-0.427558 -1.699271,-0.427558 -1.030525,0 -1.710234,0.427558 -0.668745,0.427559 -1.063414,1.293639 -0.372743,0.811264 -0.515263,2.115866 -0.131556,1.304601 -0.131556,2.861352 0,1.710234 0.120593,2.861353 0.120594,1.151119 0.515263,2.061051 0.36178,0.855117 1.019562,1.304601 0.668746,0.449485 1.765049,0.449485 1.030526,0 1.710234,-0.427559 0.679708,-0.427558 1.052451,-1.293638 z m 16.247215,3.190244 h -8.836203 v -1.666382 h 3.398543 V 62.53623 h -3.398543 v -1.490973 q 0.690673,0 1.480013,-0.10963 0.78934,-0.120593 1.19497,-0.339854 0.5043,-0.274076 0.78934,-0.690671 0.296,-0.427559 0.33985,-1.140156 h 1.69927 v 14.712395 h 3.33276 z m 15.18381,-8.167463 q 0,4.396178 -1.38134,6.457229 -1.37038,2.050088 -4.26462,2.050088 -2.9381,0 -4.29751,-2.082977 -1.34846,-2.082977 -1.34846,-6.402414 0,-4.352325 1.37038,-6.424339 1.37038,-2.082977 4.27559,-2.082977 2.93809,0 4.28655,2.115866 1.35941,2.104903 1.35941,6.369524 z m -2.88328,4.977219 q 0.38371,-0.888006 0.51527,-2.082977 0.14252,-1.205934 0.14252,-2.894242 0,-1.666381 -0.14252,-2.894241 -0.13156,-1.227861 -0.52623,-2.082977 -0.38371,-0.844154 -1.05245,-1.271713 -0.65778,-0.427558 -1.69927,-0.427558 -1.03053,0 -1.71023,0.427558 -0.66875,0.427559 -1.06342,1.293639 -0.37274,0.811264 -0.51526,2.115866 -0.13156,1.304601 -0.13156,2.861352 0,1.710234 0.12059,2.861353 0.1206,1.151119 0.51527,2.061051 0.36178,0.855117 1.01956,1.304601 0.66875,0.449485 1.76505,0.449485 1.03052,0 1.71023,-0.427559 0.67971,-0.427558 1.05245,-1.293638 z m 17.15716,-4.977219 q 0,4.396178 -1.38135,6.457229 -1.37038,2.050088 -4.26462,2.050088 -2.93809,0 -4.29751,-2.082977 -1.34845,-2.082977 -1.34845,-6.402414 0,-4.352325 1.37038,-6.424339 1.37038,-2.082977 4.27558,-2.082977 2.93809,0 4.28655,2.115866 1.35942,2.104903 1.35942,6.369524 z m -2.88328,4.977219 q 0.3837,-0.888006 0.51526,-2.082977 0.14252,-1.205934 0.14252,-2.894242 0,-1.666381 -0.14252,-2.894241 -0.13156,-1.227861 -0.52623,-2.082977 -0.3837,-0.844154 -1.05245,-1.271713 -0.65778,-0.427558 -1.69927,-0.427558 -1.03052,0 -1.71023,0.427558 -0.66875,0.427559 -1.06342,1.293639 -0.37274,0.811264 -0.51526,2.115866 -0.13156,1.304601 -0.13156,2.861352 0,1.710234 0.1206,2.861353 0.12059,1.151119 0.51526,2.061051 0.36178,0.855117 1.01956,1.304601 0.66875,0.449485 1.76505,0.449485 1.03053,0 1.71023,-0.427559 0.67971,-0.427558 1.05246,-1.293638 z m 24.1406,3.190244 h -8.83621 v -1.666382 h 3.39855 V 62.53623 h -3.39855 v -1.490973 q 0.69068,0 1.48001,-0.10963 0.78934,-0.120593 1.19498,-0.339854 0.5043,-0.274076 0.78933,-0.690671 0.29601,-0.427559 0.33986,-1.140156 h 1.69927 v 14.712395 h 3.33276 z m 15.18381,-8.167463 q 0,4.396178 -1.38135,6.457229 -1.37038,2.050088 -4.26462,2.050088 -2.93809,0 -4.29751,-2.082977 -1.34845,-2.082977 -1.34845,-6.402414 0,-4.352325 1.37038,-6.424339 1.37038,-2.082977 4.27558,-2.082977 2.9381,0 4.28655,2.115866 1.35942,2.104903 1.35942,6.369524 z m -2.88328,4.977219 q 0.3837,-0.888006 0.51526,-2.082977 0.14252,-1.205934 0.14252,-2.894242 0,-1.666381 -0.14252,-2.894241 -0.13156,-1.227861 -0.52623,-2.082977 -0.3837,-0.844154 -1.05245,-1.271713 -0.65778,-0.427558 -1.69927,-0.427558 -1.03052,0 -1.71023,0.427558 -0.66875,0.427559 -1.06342,1.293639 -0.37274,0.811264 -0.51526,2.115866 -0.13155,1.304601 -0.13155,2.861352 0,1.710234 0.12059,2.861353 0.12059,1.151119 0.51526,2.061051 0.36178,0.855117 1.01956,1.304601 0.66875,0.449485 1.76505,0.449485 1.03053,0 1.71024,-0.427559 0.6797,-0.427558 1.05245,-1.293638 z m 17.15715,-4.977219 q 0,4.396178 -1.38134,6.457229 -1.37038,2.050088 -4.26462,2.050088 -2.9381,0 -4.29752,-2.082977 -1.34845,-2.082977 -1.34845,-6.402414 0,-4.352325 1.37038,-6.424339 1.37038,-2.082977 4.27559,-2.082977 2.93809,0 4.28654,2.115866 1.35942,2.104903 1.35942,6.369524 z m -2.88328,4.977219 q 0.38371,-0.888006 0.51526,-2.082977 0.14252,-1.205934 0.14252,-2.894242 0,-1.666381 -0.14252,-2.894241 -0.13155,-1.227861 -0.52622,-2.082977 -0.38371,-0.844154 -1.05245,-1.271713 -0.65779,-0.427558 -1.69927,-0.427558 -1.03053,0 -1.71024,0.427558 -0.66874,0.427559 -1.06341,1.293639 -0.37275,0.811264 -0.51527,2.115866 -0.13155,1.304601 -0.13155,2.861352 0,1.710234 0.12059,2.861353 0.12059,1.151119 0.51526,2.061051 0.36178,0.855117 1.01957,1.304601 0.66874,0.449485 1.76505,0.449485 1.03052,0 1.71023,-0.427559 0.67971,-0.427558 1.05245,-1.293638 z m 16.24723,3.190244 h -8.83621 v -1.666382 h 3.39854 V 62.53623 h -3.39854 v -1.490973 q 0.69067,0 1.48001,-0.10963 0.78934,-0.120593 1.19497,-0.339854 0.5043,-0.274076 0.78934,-0.690671 0.296,-0.427559 0.33985,-1.140156 h 1.69927 v 14.712395 h 3.33277 z m 15.18379,-8.167463 q 0,4.396178 -1.38134,6.457229 -1.37038,2.050088 -4.26462,2.050088 -2.93809,0 -4.29751,-2.082977 -1.34845,-2.082977 -1.34845,-6.402414 0,-4.352325 1.37038,-6.424339 1.37038,-2.082977 4.27558,-2.082977 2.93809,0 4.28655,2.115866 1.35941,2.104903 1.35941,6.369524 z m -2.88327,4.977219 q 0.3837,-0.888006 0.51526,-2.082977 0.14252,-1.205934 0.14252,-2.894242 0,-1.666381 -0.14252,-2.894241 -0.13156,-1.227861 -0.52623,-2.082977 -0.3837,-0.844154 -1.05245,-1.271713 -0.65778,-0.427558 -1.69927,-0.427558 -1.03053,0 -1.71023,0.427558 -0.66875,0.427559 -1.06342,1.293639 -0.37274,0.811264 -0.51526,2.115866 -0.13156,1.304601 -0.13156,2.861352 0,1.710234 0.1206,2.861353 0.12059,1.151119 0.51526,2.061051 0.36178,0.855117 1.01956,1.304601 0.66875,0.449485 1.76505,0.449485 1.03053,0 1.71023,-0.427559 0.67971,-0.427558 1.05246,-1.293638 z m 17.15715,-4.977219 q 0,4.396178 -1.38134,6.457229 -1.37038,2.050088 -4.26462,2.050088 -2.93809,0 -4.29751,-2.082977 -1.34845,-2.082977 -1.34845,-6.402414 0,-4.352325 1.37038,-6.424339 1.37038,-2.082977 4.27558,-2.082977 2.93809,0 4.28655,2.115866 1.35941,2.104903 1.35941,6.369524 z m -2.88327,4.977219 q 0.3837,-0.888006 0.51526,-2.082977 0.14252,-1.205934 0.14252,-2.894242 0,-1.666381 -0.14252,-2.894241 -0.13156,-1.227861 -0.52623,-2.082977 -0.3837,-0.844154 -1.05245,-1.271713 -0.65778,-0.427558 -1.69927,-0.427558 -1.03053,0 -1.71023,0.427558 -0.66875,0.427559 -1.06342,1.293639 -0.37274,0.811264 -0.51526,2.115866 -0.13156,1.304601 -0.13156,2.861352 0,1.710234 0.1206,2.861353 0.12059,1.151119 0.51526,2.061051 0.36178,0.855117 1.01956,1.304601 0.66875,0.449485 1.76505,0.449485 1.03053,0 1.71023,-0.427559 0.67971,-0.427558 1.05246,-1.293638 z m 17.15714,-4.977219 q 0,4.396178 -1.38134,6.457229 -1.37038,2.050088 -4.26463,2.050088 -2.93809,0 -4.29751,-2.082977 -1.34845,-2.082977 -1.34845,-6.402414 0,-4.352325 1.37038,-6.424339 1.37038,-2.082977 4.27558,-2.082977 2.9381,0 4.28655,2.115866 1.35942,2.104903 1.35942,6.369524 z m -2.88328,4.977219 q 0.38371,-0.888006 0.51526,-2.082977 0.14252,-1.205934 0.14252,-2.894242 0,-1.666381 -0.14252,-2.894241 -0.13155,-1.227861 -0.52622,-2.082977 -0.38371,-0.844154 -1.05245,-1.271713 -0.65779,-0.427558 -1.69928,-0.427558 -1.03052,0 -1.71023,0.427558 -0.66874,0.427559 -1.06341,1.293639 -0.37275,0.811264 -0.51527,2.115866 -0.13155,1.304601 -0.13155,2.861352 0,1.710234 0.12059,2.861353 0.12059,1.151119 0.51526,2.061051 0.36178,0.855117 1.01957,1.304601 0.66874,0.449485 1.76504,0.449485 1.03053,0 1.71024,-0.427559 0.67971,-0.427558 1.05245,-1.293638 z"
         id="text12"
         style="font-size:22.4523px;line-height:1.25;fill:#fbb305;stroke:#fbb305;stroke-width:0.970139"
         aria-label="1010100 1001000" /><path
         d="m 51.561811,101.7631 h -8.836207 v -1.66638 h 3.398541 V 89.155607 h -3.398541 v -1.490972 q 0.690671,0 1.480009,-0.109631 0.789339,-0.120593 1.194971,-0.339854 0.5043,-0.274076 0.789339,-0.690671 0.296002,-0.427559 0.339854,-1.140156 h 1.699271 v 14.712397 h 3.332763 z m 15.183805,-8.167463 q 0,4.396178 -1.381342,6.457233 -1.37038,2.05008 -4.264621,2.05008 -2.938094,0 -4.297511,-2.08297 -1.348453,-2.08298 -1.348453,-6.402417 0,-4.352325 1.370379,-6.424339 1.37038,-2.082977 4.275585,-2.082977 2.938093,0 4.286547,2.115866 1.359416,2.104903 1.359416,6.369524 z m -2.883278,4.977219 q 0.383706,-0.888006 0.515263,-2.082977 0.142519,-1.205934 0.142519,-2.894242 0,-1.666381 -0.142519,-2.894241 -0.131557,-1.22786 -0.526226,-2.082977 -0.383707,-0.844154 -1.052452,-1.271713 -0.657782,-0.427558 -1.69927,-0.427558 -1.030526,0 -1.710234,0.427558 -0.668745,0.427559 -1.063415,1.293639 -0.372743,0.811264 -0.515262,2.115866 -0.131557,1.304601 -0.131557,2.861352 0,1.710234 0.120594,2.861353 0.120593,1.151119 0.515262,2.061051 0.36178,0.855117 1.019563,1.304601 0.668745,0.449482 1.765049,0.449482 1.030525,0 1.710233,-0.427556 0.679709,-0.427558 1.052452,-1.293638 z M 81.01949,93.595637 q 0,4.396178 -1.381343,6.457233 -1.370379,2.05008 -4.264621,2.05008 -2.938094,0 -4.29751,-2.08297 -1.348454,-2.08298 -1.348454,-6.402417 0,-4.352325 1.37038,-6.424339 1.370379,-2.082977 4.275584,-2.082977 2.938094,0 4.286547,2.115866 1.359417,2.104903 1.359417,6.369524 z m -2.883279,4.977219 q 0.383706,-0.888006 0.515263,-2.082977 0.142519,-1.205934 0.142519,-2.894242 0,-1.666381 -0.142519,-2.894241 -0.131557,-1.22786 -0.526226,-2.082977 -0.383706,-0.844154 -1.052451,-1.271713 -0.657783,-0.427558 -1.699271,-0.427558 -1.030526,0 -1.710234,0.427558 -0.668745,0.427559 -1.063414,1.293639 -0.372744,0.811264 -0.515263,2.115866 -0.131557,1.304601 -0.131557,2.861352 0,1.710234 0.120594,2.861353 0.120593,1.151119 0.515263,2.061051 0.36178,0.855117 1.019562,1.304601 0.668745,0.449482 1.765049,0.449482 1.030525,0 1.710234,-0.427556 0.679708,-0.427558 1.052451,-1.293638 z m 17.157153,-4.977219 q 0,4.396178 -1.381343,6.457233 -1.370379,2.05008 -4.264621,2.05008 -2.938094,0 -4.29751,-2.08297 -1.348454,-2.08298 -1.348454,-6.402417 0,-4.352325 1.37038,-6.424339 1.370379,-2.082977 4.275584,-2.082977 2.938094,0 4.286548,2.115866 1.359416,2.104903 1.359416,6.369524 z m -2.883279,4.977219 q 0.383707,-0.888006 0.515263,-2.082977 0.14252,-1.205934 0.14252,-2.894242 0,-1.666381 -0.14252,-2.894241 -0.131556,-1.22786 -0.526226,-2.082977 -0.383706,-0.844154 -1.052451,-1.271713 -0.657782,-0.427558 -1.699271,-0.427558 -1.030525,0 -1.710234,0.427558 -0.668745,0.427559 -1.063414,1.293639 -0.372743,0.811264 -0.515263,2.115866 -0.131556,1.304601 -0.131556,2.861352 0,1.710234 0.120593,2.861353 0.120594,1.151119 0.515263,2.061051 0.36178,0.855117 1.019562,1.304601 0.668746,0.449482 1.765049,0.449482 1.030526,0 1.710234,-0.427556 0.679708,-0.427558 1.052451,-1.293638 z M 108.6573,101.7631 h -8.836203 v -1.66638 h 3.398543 V 89.155607 h -3.398543 v -1.490972 q 0.690673,0 1.480013,-0.109631 0.78934,-0.120593 1.19497,-0.339854 0.5043,-0.274076 0.78934,-0.690671 0.296,-0.427559 0.33985,-1.140156 h 1.69927 v 14.712397 h 3.33276 z m 15.18381,-8.167463 q 0,4.396178 -1.38134,6.457233 -1.37038,2.05008 -4.26462,2.05008 -2.9381,0 -4.29751,-2.08297 -1.34846,-2.08298 -1.34846,-6.402417 0,-4.352325 1.37038,-6.424339 1.37038,-2.082977 4.27559,-2.082977 2.93809,0 4.28655,2.115866 1.35941,2.104903 1.35941,6.369524 z m -2.88328,4.977219 q 0.38371,-0.888006 0.51527,-2.082977 0.14252,-1.205934 0.14252,-2.894242 0,-1.666381 -0.14252,-2.894241 -0.13156,-1.22786 -0.52623,-2.082977 -0.38371,-0.844154 -1.05245,-1.271713 -0.65778,-0.427558 -1.69927,-0.427558 -1.03053,0 -1.71023,0.427558 -0.66875,0.427559 -1.06342,1.293639 -0.37274,0.811264 -0.51526,2.115866 -0.13156,1.304601 -0.13156,2.861352 0,1.710234 0.12059,2.861353 0.1206,1.151119 0.51527,2.061051 0.36178,0.855117 1.01956,1.304601 0.66875,0.449482 1.76505,0.449482 1.03052,0 1.71023,-0.427556 0.67971,-0.427558 1.05245,-1.293638 z m 16.24722,3.190244 h -8.8362 v -1.66638 h 3.39854 V 89.155607 h -3.39854 v -1.490972 q 0.69067,0 1.48001,-0.109631 0.78933,-0.120593 1.19497,-0.339854 0.5043,-0.274076 0.78934,-0.690671 0.296,-0.427559 0.33985,-1.140156 h 1.69927 v 14.712397 h 3.33276 z m 22.16726,0 h -8.83621 v -1.66638 h 3.39855 V 89.155607 h -3.39855 v -1.490972 q 0.69068,0 1.48001,-0.109631 0.78934,-0.120593 1.19498,-0.339854 0.5043,-0.274076 0.78933,-0.690671 0.29601,-0.427559 0.33986,-1.140156 h 1.69927 v 14.712397 h 3.33276 z m 15.18381,-8.167463 q 0,4.396178 -1.38135,6.457233 -1.37038,2.05008 -4.26462,2.05008 -2.93809,0 -4.29751,-2.08297 -1.34845,-2.08298 -1.34845,-6.402417 0,-4.352325 1.37038,-6.424339 1.37038,-2.082977 4.27558,-2.082977 2.9381,0 4.28655,2.115866 1.35942,2.104903 1.35942,6.369524 z m -2.88328,4.977219 q 0.3837,-0.888006 0.51526,-2.082977 0.14252,-1.205934 0.14252,-2.894242 0,-1.666381 -0.14252,-2.894241 -0.13156,-1.22786 -0.52623,-2.082977 -0.3837,-0.844154 -1.05245,-1.271713 -0.65778,-0.427558 -1.69927,-0.427558 -1.03052,0 -1.71023,0.427558 -0.66875,0.427559 -1.06342,1.293639 -0.37274,0.811264 -0.51526,2.115866 -0.13155,1.304601 -0.13155,2.861352 0,1.710234 0.12059,2.861353 0.12059,1.151119 0.51526,2.061051 0.36178,0.855117 1.01956,1.304601 0.66875,0.449482 1.76505,0.449482 1.03053,0 1.71024,-0.427556 0.6797,-0.427558 1.05245,-1.293638 z m 17.15715,-4.977219 q 0,4.396178 -1.38134,6.457233 -1.37038,2.05008 -4.26462,2.05008 -2.9381,0 -4.29752,-2.08297 -1.34845,-2.08298 -1.34845,-6.402417 0,-4.352325 1.37038,-6.424339 1.37038,-2.082977 4.27559,-2.082977 2.93809,0 4.28654,2.115866 1.35942,2.104903 1.35942,6.369524 z m -2.88328,4.977219 q 0.38371,-0.888006 0.51526,-2.082977 0.14252,-1.205934 0.14252,-2.894242 0,-1.666381 -0.14252,-2.894241 -0.13155,-1.22786 -0.52622,-2.082977 -0.38371,-0.844154 -1.05245,-1.271713 -0.65779,-0.427558 -1.69927,-0.427558 -1.03053,0 -1.71024,0.427558 -0.66874,0.427559 -1.06341,1.293639 -0.37275,0.811264 -0.51527,2.115866 -0.13155,1.304601 -0.13155,2.861352 0,1.710234 0.12059,2.861353 0.12059,1.151119 0.51526,2.061051 0.36178,0.855117 1.01957,1.304601 0.66874,0.449482 1.76505,0.449482 1.03052,0 1.71023,-0.427556 0.67971,-0.427558 1.05245,-1.293638 z m 16.24723,3.190244 h -8.83621 v -1.66638 h 3.39854 V 89.155607 h -3.39854 v -1.490972 q 0.69067,0 1.48001,-0.109631 0.78934,-0.120593 1.19497,-0.339854 0.5043,-0.274076 0.78934,-0.690671 0.296,-0.427559 0.33985,-1.140156 h 1.69927 v 14.712397 h 3.33277 z m 14.27386,0 h -8.83621 v -1.66638 h 3.39855 V 89.155607 h -3.39855 v -1.490972 q 0.69068,0 1.48001,-0.109631 0.78934,-0.120593 1.19498,-0.339854 0.50429,-0.274076 0.78933,-0.690671 0.29601,-0.427559 0.33986,-1.140156 h 1.69927 v 14.712397 h 3.33276 z m 14.27388,0 h -8.83621 v -1.66638 h 3.39855 V 89.155607 h -3.39855 v -1.490972 q 0.69068,0 1.48001,-0.109631 0.78934,-0.120593 1.19498,-0.339854 0.50429,-0.274076 0.78933,-0.690671 0.29601,-0.427559 0.33986,-1.140156 h 1.69927 v 14.712397 h 3.33276 z m 15.1838,-8.167463 q 0,4.396178 -1.38134,6.457233 -1.37038,2.05008 -4.26463,2.05008 -2.93809,0 -4.29751,-2.08297 -1.34845,-2.08298 -1.34845,-6.402417 0,-4.352325 1.37038,-6.424339 1.37038,-2.082977 4.27558,-2.082977 2.9381,0 4.28655,2.115866 1.35942,2.104903 1.35942,6.369524 z m -2.88328,4.977219 q 0.38371,-0.888006 0.51526,-2.082977 0.14252,-1.205934 0.14252,-2.894242 0,-1.666381 -0.14252,-2.894241 -0.13155,-1.22786 -0.52622,-2.082977 -0.38371,-0.844154 -1.05245,-1.271713 -0.65779,-0.427558 -1.69928,-0.427558 -1.03052,0 -1.71023,0.427558 -0.66874,0.427559 -1.06341,1.293639 -0.37275,0.811264 -0.51527,2.115866 -0.13155,1.304601 -0.13155,2.861352 0,1.710234 0.12059,2.861353 0.12059,1.151119 0.51526,2.061051 0.36178,0.855117 1.01957,1.304601 0.66874,0.449482 1.76504,0.449482 1.03053,0 1.71024,-0.427556 0.67971,-0.427558 1.05245,-1.293638 z"
         id="text38"
         style="font-size:22.4523px;line-height:1.25;fill:#fbb305;stroke:#fbb305;stroke-width:0.970139"
         aria-label="1000101 1001110" /></g></g></svg>
