<?xml version="1.0" encoding="UTF-8" standalone="no"?>
<!-- Created with Inkscape (http://www.inkscape.org/) -->

<svg
   width="8.5in"
   height="11in"
   viewBox="0 0 215.9 279.4"
   version="1.1"
   id="svg1"
   inkscape:version="1.3 (0e150ed, 2023-07-21)"
   sodipodi:docname="lfg.svg"
   xmlns:inkscape="http://www.inkscape.org/namespaces/inkscape"
   xmlns:sodipodi="http://sodipodi.sourceforge.net/DTD/sodipodi-0.dtd"
   xmlns="http://www.w3.org/2000/svg"
   xmlns:svg="http://www.w3.org/2000/svg">
  <sodipodi:namedview
     id="namedview1"
     pagecolor="#ffffff"
     bordercolor="#666666"
     borderopacity="1.0"
     inkscape:showpageshadow="2"
     inkscape:pageopacity="0.0"
     inkscape:pagecheckerboard="0"
     inkscape:deskcolor="#d1d1d1"
     inkscape:document-units="in"
     inkscape:zoom="1.1893044"
     inkscape:cx="364.91919"
     inkscape:cy="425.87919"
     inkscape:window-width="1696"
     inkscape:window-height="968"
     inkscape:window-x="8"
     inkscape:window-y="39"
     inkscape:window-maximized="0"
     inkscape:current-layer="layer1" />
  <defs
     id="defs1" />
  <g
     inkscape:label="Layer 1"
     inkscape:groupmode="layer"
     id="layer1">
    <g
       id="g1">
      <path
         style="font-weight:bold;font-size:35.2778px;font-family:'JetBrains Mono';-inkscape-font-specification:'JetBrains Mono, Bold';fill:#ff0000;stroke-width:0.264583"
         d="m 98.696513,76.347753 -6.45584,-1.16416 v -3.21028 l 6.45584,1.16416 v -4.90361 l -6.45584,-1.16417 v -3.21028 l 6.45584,1.16417 v -2.89278 h 2.998607 v 3.42195 l 6.49111,1.16416 v -3.38666 h 3.0339 v 3.91583 l 6.42056,1.16417 v 3.21028 l -6.42056,-1.16417 v 4.90362 l 6.42056,1.16416 v 3.21028 l -6.42056,-1.16416 v 2.89278 h -3.0339 v -3.42195 l -6.49111,-1.16417 v 3.35139 h -2.998607 z m 2.998607,-2.68111 6.49111,1.16417 v -4.90362 l -6.49111,-1.16416 z"
         id="path5" />
    </g>
    <g
       id="g2">
      <path
         style="font-weight:bold;font-size:35.2778px;font-family:'JetBrains Mono';-inkscape-font-specification:'JetBrains Mono, Bold';fill:#ffe680;stroke-width:0.264583"
         d="M 117.99346,94.057168 H 98.520123 q -1.09361,0 -1.69334,0.59972 -0.59972,0.635 -0.59972,1.65806 v 5.785562 h -3.98639 v -6.103062 q 0,-2.96334 1.65806,-4.65667 1.65805,-1.69334 4.62139,-1.69334 h 15.486947 v -6.173615 h 3.98639 z"
         id="path6" />
    </g>
    <g
       id="g3">
      <path
         style="font-weight:bold;font-size:35.2778px;font-family:'JetBrains Mono';-inkscape-font-specification:'JetBrains Mono, Bold';fill:#008000;stroke-width:0.264583"
         d="m 105.7168,105.45184 h 3.98638 v 5.32695 h 2.75167 q 2.54,0 4.02167,1.65806 1.51694,1.69333 1.51694,4.51556 v 5.67972 h -3.88055 v -5.57389 q 0,-0.84667 -0.49389,-1.34056 -0.45861,-0.49388 -1.27001,-0.49388 h -2.64583 v 7.40833 H 105.7168 V 115.2238 H 92.240673 v -4.44501 H 105.7168 Z"
         id="path7" />
    </g>
    <g
       id="g4">
      <path
         style="font-weight:bold;font-size:35.2778px;font-family:'JetBrains Mono';-inkscape-font-specification:'JetBrains Mono, Bold';fill:#0000ff;stroke-width:0.264583"
         d="m 104.48207,126.75959 q 1.69333,0 3.06916,0.45861 1.41112,0.49389 2.39889,1.37583 0.98778,0.88195 1.51695,2.11667 0.52917,1.23472 0.52917,2.75167 0,2.18722 -1.05834,3.59833 -1.02305,1.41112 -2.82222,1.76389 v 0.24695 h 3.52778 v 4.23333 H 93.440113 q -1.62277,0 -2.89278,-0.56444 -1.30527,-0.56445 -2.2225,-1.62278 -0.91722,-1.05833 -1.41111,-2.57528 -0.49389,-1.48167 -0.49389,-3.31611 v -5.18584 h 3.66889 v 5.18584 q 0,1.69333 0.88195,2.68111 0.88194,0.98778 2.46944,0.98778 h 0.38806 l 3.88056,0.14111 v -0.21167 q -1.79917,-0.35277 -2.8575,-1.79916 -1.02306,-1.41112 -1.02306,-3.56306 0,-1.51695 0.52917,-2.75167 0.52916,-1.23472 1.51694,-2.11667 0.98778,-0.88194 2.36362,-1.37583 1.41111,-0.45861 3.104437,-0.45861 z m -3.03389,4.445 q -1.799167,0 -2.822227,1.02305 -0.98778,1.02306 -0.98778,2.82223 0,1.76389 1.02306,2.78694 1.02306,1.05834 2.786937,1.05834 h 2.92806 q 1.76389,0 2.78695,-1.05834 1.02305,-1.02305 1.02305,-2.78694 0,-1.79917 -1.02305,-2.82223 -1.02306,-1.02305 -2.78695,-1.02305 z"
         id="path8" />
    </g>
  </g>
</svg>
