<?xml version="1.0" encoding="UTF-8" standalone="no"?>
<!-- Created with Inkscape (http://www.inkscape.org/) -->

<svg
   width="8.5in"
   height="11in"
   viewBox="0 0 215.9 279.4"
   version="1.1"
   id="svg1"
   inkscape:version="1.3 (0e150ed, 2023-07-21)"
   sodipodi:docname="yeah-no-yeah master.svg"
   xmlns:inkscape="http://www.inkscape.org/namespaces/inkscape"
   xmlns:sodipodi="http://sodipodi.sourceforge.net/DTD/sodipodi-0.dtd"
   xmlns="http://www.w3.org/2000/svg"
   xmlns:svg="http://www.w3.org/2000/svg">
  <sodipodi:namedview
     id="namedview1"
     pagecolor="#ffffff"
     bordercolor="#666666"
     borderopacity="1.0"
     inkscape:showpageshadow="2"
     inkscape:pageopacity="0.0"
     inkscape:pagecheckerboard="0"
     inkscape:deskcolor="#d1d1d1"
     inkscape:document-units="in"
     inkscape:zoom="0.84096521"
     inkscape:cx="476.23849"
     inkscape:cy="256.25317"
     inkscape:window-width="1680"
     inkscape:window-height="980"
     inkscape:window-x="8"
     inkscape:window-y="63"
     inkscape:window-maximized="0"
     inkscape:current-layer="layer1" />
  <defs
     id="defs1" />
  <g
     inkscape:label="Layer 1"
     inkscape:groupmode="layer"
     id="layer1">
    <path
       d="m 18.274978,58.474443 h 0.170513 q 0.734519,0 1.101778,0.36726 0.367259,0.354143 0.367259,1.075545 0,0.773868 -0.380375,1.114894 -0.36726,0.341027 -1.259175,0.341027 h -3.226636 q -0.878799,0 -1.272292,-0.341027 -0.380375,-0.341026 -0.380375,-1.114894 0,-0.721402 0.367259,-1.075545 0.380376,-0.36726 1.128011,-0.36726 h 0.157397 v -3.790641 q 0,-1.573969 -0.445958,-2.229789 -0.432841,-0.668937 -1.455921,-0.668937 -1.088662,0 -1.783831,0.800101 -0.682054,0.786984 -0.682054,2.098625 v 3.790641 h 0.157397 q 0.747635,0 1.114895,0.36726 0.367259,0.354143 0.367259,1.075545 0,0.773868 -0.380376,1.114894 -0.380375,0.341027 -1.259175,0.341027 H 7.4277097 q -0.8787992,0 -1.259175,-0.341027 -0.3803758,-0.341026 -0.3803758,-1.114894 0,-0.721402 0.3672594,-1.075545 0.3672593,-0.36726 1.1148945,-0.36726 h 0.1573969 v -6.34834 H 7.2047308 q -0.708286,0 -1.0755453,-0.354143 -0.3672594,-0.36726 -0.3672594,-1.062429 0,-0.773868 0.3803758,-1.114895 0.3803757,-0.341026 1.2854078,-0.341026 h 2.229789 q 0.3672593,0 0.5508893,0.14428 0.196746,0.14428 0.196746,0.419725 v 1.02308 q 0.603355,-0.944382 1.534619,-1.416572 0.944382,-0.485307 2.177324,-0.485307 2.098625,0 3.121705,1.272291 1.036196,1.272292 1.036196,3.882456 z M 28.886151,51.73261 q -1.53462,0 -2.531467,1.009964 -0.98373,0.996846 -0.98373,2.557699 0,1.573969 0.98373,2.610165 0.996847,1.023079 2.531467,1.023079 1.534619,0 2.531466,-1.023079 0.996847,-1.036196 0.996847,-2.610165 0,-1.560853 -0.996847,-2.557699 -0.98373,-1.009964 -2.531466,-1.009964 z m 0,-2.767561 q 3.187287,0 5.167864,1.783831 1.980577,1.783831 1.980577,4.577626 0,2.806911 -1.980577,4.590742 -1.980577,1.783831 -5.167864,1.783831 -3.174171,0 -5.154748,-1.783831 -1.980577,-1.783831 -1.980577,-4.590742 0,-2.793795 1.980577,-4.577626 1.993694,-1.783831 5.154748,-1.783831 z m 15.451127,7.869843 h 3.121705 q 0.209862,0 0.32791,0.0787 0.131164,0.0787 0.131164,0.209862 0,0.06558 -0.03935,0.170514 -0.02623,0.09181 -0.0787,0.209862 l -3.921805,7.686214 q -0.09181,0.209863 -0.262328,0.32791 -0.170514,0.131164 -0.380376,0.131164 -0.05247,0 -0.131164,-0.02623 -0.06558,-0.01312 -0.131164,-0.02623 l -0.996847,-0.354143 q -0.222979,-0.0787 -0.341027,-0.222979 -0.118047,-0.131164 -0.118047,-0.288561 0,-0.144281 0,-0.222979 0.01312,-0.06558 0.02623,-0.131164 l 1.86253,-6.820531 q 0.118048,-0.445958 0.301677,-0.577122 0.196746,-0.144281 0.629588,-0.144281 z m 30.600577,-4.708789 2.360953,5.587589 2.479001,-5.587589 h -0.209863 q -0.708286,0 -1.088662,-0.36726 -0.367259,-0.367259 -0.367259,-1.075545 0,-0.773868 0.367259,-1.101778 0.380376,-0.32791 1.298525,-0.32791 h 3.082355 q 0.918148,0 1.285408,0.341026 0.380376,0.32791 0.380376,1.088662 0,0.708286 -0.36726,1.075545 -0.367259,0.36726 -1.075545,0.36726 h -0.222979 l -5.390843,11.581786 h 0.590238 q 0.891916,0 1.272292,0.341027 0.393492,0.341026 0.393492,1.114894 0,0.760752 -0.393492,1.101778 -0.380376,0.341027 -1.272292,0.341027 h -5.744986 q -0.905032,0 -1.285407,-0.341027 -0.380376,-0.32791 -0.380376,-1.101778 0,-0.773868 0.380376,-1.114894 0.380375,-0.341027 1.285407,-0.341027 h 2.033043 l 1.232943,-2.636397 -3.974272,-8.945389 h -0.209862 q -0.708286,0 -1.088662,-0.36726 -0.367259,-0.367259 -0.367259,-1.075545 0,-0.773868 0.380376,-1.101778 0.380375,-0.32791 1.285407,-0.32791 h 3.331568 q 0.905032,0 1.285407,0.341026 0.380376,0.32791 0.380376,1.088662 0,0.708286 -0.380376,1.075545 -0.367259,0.36726 -1.062428,0.36726 z m 14.860888,3.961154 q 0.341027,1.455921 1.311641,2.177324 0.983731,0.721402 2.610165,0.721402 1.626434,0 3.213519,-0.786984 1.587086,-0.800101 1.914996,-0.800101 0.485307,0 0.786984,0.367259 0.314794,0.354143 0.314794,0.918149 0,1.232942 -1.823181,2.124857 -1.82318,0.891916 -4.512043,0.891916 -3.174171,0 -5.167864,-1.783831 -1.980578,-1.783831 -1.980578,-4.590742 0,-2.793795 1.980578,-4.577626 1.993693,-1.783831 5.167864,-1.783831 2.833143,0 4.695673,1.6789 1.862529,1.665783 1.862529,4.092318 0,0.773868 -0.380375,1.062429 -0.367259,0.288561 -1.53462,0.288561 z m 7.069743,-2.046159 q -0.222978,-1.219826 -1.154243,-1.888763 -0.918149,-0.668936 -2.400303,-0.668936 -1.429688,0 -2.308487,0.642704 -0.865683,0.629587 -1.20671,1.914995 z m 17.969474,4.459578 h 0.20987 q 0.70828,0 1.07554,0.380376 0.38038,0.367259 0.38038,1.062429 0,0.760751 -0.3935,1.101778 -0.38037,0.32791 -1.27229,0.32791 h -1.23294 q -0.65582,0 -0.98373,-0.249212 -0.31479,-0.249211 -0.52466,-0.905032 -1.08866,0.721403 -2.30848,1.101778 -1.21983,0.380376 -2.46589,0.380376 -2.11174,0 -3.31845,-1.049312 -1.20671,-1.049313 -1.20671,-2.872493 0,-1.967461 1.56085,-3.056123 1.56086,-1.088662 4.38088,-1.088662 0.62959,0 1.33788,0.06558 0.70828,0.06558 1.58708,0.209863 v -0.249212 q 0,-1.180477 -0.57712,-1.796948 -0.564,-0.616471 -1.6789,-0.616471 -0.86568,0 -2.21667,0.642704 -1.33787,0.642704 -1.96746,0.642704 -0.61647,0 -0.99685,-0.354143 -0.38037,-0.367259 -0.38037,-0.957498 0,-1.062428 1.54773,-1.6789 1.56085,-0.629587 4.2366,-0.629587 2.79379,0 4.0005,1.075545 1.20671,1.075546 1.20671,3.646361 z m -3.17417,-2.531466 q -0.65582,-0.144281 -1.20671,-0.209863 -0.55089,-0.0787 -1.02308,-0.0787 -1.4428,0 -2.26913,0.485307 -0.81322,0.485307 -0.81322,1.337873 0,0.760752 0.52465,1.16736 0.52466,0.393492 1.50839,0.393492 0.90503,0 1.70513,-0.262328 0.80011,-0.262328 1.57397,-0.813217 z m 11.831,-5.390843 q 0.45908,-0.800101 1.29853,-1.219826 0.83945,-0.419725 2.00681,-0.419725 2.07239,0 3.18728,1.206709 1.12801,1.20671 1.12801,3.462731 v 4.89242 h 0.22298 q 0.69517,0 1.04932,0.367259 0.36725,0.354143 0.36725,1.049313 0,0.773868 -0.38037,1.114894 -0.36726,0.341027 -1.25918,0.341027 h -3.25286 q -0.8788,0 -1.25918,-0.341027 -0.36726,-0.341026 -0.36726,-1.114894 0,-0.708286 0.35414,-1.062429 0.35415,-0.354143 1.06243,-0.354143 h 0.20987 v -3.816874 q 0,-1.6789 -0.41973,-2.321604 -0.40661,-0.65582 -1.40346,-0.65582 -1.04931,0 -1.79694,0.852566 -0.74764,0.83945 -0.74764,2.124858 v 3.816874 h 0.20986 q 0.70829,0 1.06243,0.367259 0.36726,0.354143 0.36726,1.049313 0,0.773868 -0.38037,1.114894 -0.38038,0.341027 -1.25918,0.341027 h -3.25287 q -0.90503,0 -1.27229,-0.32791 -0.36726,-0.341027 -0.36726,-1.128011 0,-0.69517 0.35415,-1.049313 0.36725,-0.367259 1.06242,-0.367259 h 0.22298 V 47.115635 h -0.22298 q -0.69517,0 -1.07554,-0.367259 -0.36726,-0.380376 -0.36726,-1.088662 0,-0.773868 0.38038,-1.114894 0.38037,-0.341027 1.2854,-0.341027 h 2.46589 q 0.44596,0 0.61647,0.18363 0.17051,0.18363 0.17051,0.682053 z m 18.23181,6.046663 q 1.23294,0 1.98057,0.682053 0.76076,0.682053 0.76076,1.783831 0,1.088662 -0.76076,1.783832 -0.74763,0.682053 -1.98057,0.682053 -1.20671,0 -1.96746,-0.682053 -0.76076,-0.69517 -0.76076,-1.783832 0,-1.088661 0.76076,-1.770715 0.76075,-0.695169 1.96746,-0.695169 z m 37.74902,1.849413 h 0.17051 q 0.73452,0 1.10178,0.36726 0.36726,0.354143 0.36726,1.075545 0,0.773868 -0.38038,1.114894 -0.36726,0.341027 -1.25917,0.341027 h -3.22664 q -0.8788,0 -1.27229,-0.341027 -0.38038,-0.341026 -0.38038,-1.114894 0,-0.721402 0.36726,-1.075545 0.38038,-0.36726 1.12801,-0.36726 h 0.1574 v -3.790641 q 0,-1.573969 -0.44596,-2.229789 -0.43284,-0.668937 -1.45592,-0.668937 -1.08866,0 -1.78383,0.800101 -0.68205,0.786984 -0.68205,2.098625 v 3.790641 h 0.15739 q 0.74764,0 1.1149,0.36726 0.36726,0.354143 0.36726,1.075545 0,0.773868 -0.38038,1.114894 -0.38037,0.341027 -1.25917,0.341027 h -3.25287 q -0.8788,0 -1.25918,-0.341027 -0.38037,-0.341026 -0.38037,-1.114894 0,-0.721402 0.36726,-1.075545 0.36726,-0.36726 1.11489,-0.36726 h 0.1574 v -6.34834 h -0.22298 q -0.70829,0 -1.07555,-0.354143 -0.36726,-0.36726 -0.36726,-1.062429 0,-0.773868 0.38038,-1.114895 0.38038,-0.341026 1.28541,-0.341026 h 2.22979 q 0.36726,0 0.55089,0.14428 0.19674,0.14428 0.19674,0.419725 v 1.02308 q 0.60336,-0.944382 1.53462,-1.416572 0.94438,-0.485307 2.17732,-0.485307 2.09863,0 3.12171,1.272291 1.0362,1.272292 1.0362,3.882456 z M 190.0868,51.73261 q -1.53462,0 -2.53147,1.009964 -0.98373,0.996846 -0.98373,2.557699 0,1.573969 0.98373,2.610165 0.99685,1.023079 2.53147,1.023079 1.53462,0 2.53146,-1.023079 0.99685,-1.036196 0.99685,-2.610165 0,-1.560853 -0.99685,-2.557699 -0.98373,-1.009964 -2.53146,-1.009964 z m 0,-2.767561 q 3.18728,0 5.16786,1.783831 1.98058,1.783831 1.98058,4.577626 0,2.806911 -1.98058,4.590742 -1.98058,1.783831 -5.16786,1.783831 -3.17417,0 -5.15475,-1.783831 -1.98058,-1.783831 -1.98058,-4.590742 0,-2.793795 1.98058,-4.577626 1.99369,-1.783831 5.15475,-1.783831 z m 16.12005,7.659981 q 1.23294,0 1.98058,0.682053 0.76075,0.682053 0.76075,1.783831 0,1.088662 -0.76075,1.783832 -0.74764,0.682053 -1.98058,0.682053 -1.20671,0 -1.96746,-0.682053 -0.76075,-0.69517 -0.76075,-1.783832 0,-1.088661 0.76075,-1.770715 0.76075,-0.695169 1.96746,-0.695169 z"
       id="text1"
       style="-inkscape-font-specification:'Courier, Bold';stroke-width:0.671561"
       aria-label="no, yeah. no."
       inkscape:export-filename="noyeahno.svg"
       inkscape:export-xdpi="96"
       inkscape:export-ydpi="96" />
  </g>
</svg>
